<?xml version="1.0" standalone="no"?>
<!DOCTYPE svg PUBLIC "-//W3C//DTD SVG 20010904//EN"
 "http://www.w3.org/TR/2001/REC-SVG-20010904/DTD/svg10.dtd">
<svg version="1.0" xmlns="http://www.w3.org/2000/svg"
 width="1098.000000pt" height="1065.000000pt" viewBox="0 0 1098.000000 1065.000000"
 preserveAspectRatio="xMidYMid meet">

<g transform="translate(0.000000,1065.000000) scale(0.100000,-0.100000)"
fill="#000000" stroke="none">
<path d="M0 5325 l0 -5325 5490 0 5490 0 0 109 c0 106 -1 110 -22 114 l-23 4
23 2 22 1 0 5210 0 5210 -5490 0 -5490 0 0 -5325z m3905 5214 c91 -28 184 -75
262 -133 35 -25 199 -178 366 -338 989 -957 934 -908 1030 -908 28 0 64 8 86
19 71 37 144 136 177 244 l18 58 36 -6 c19 -4 36 -8 38 -9 7 -8 -54 -189 -81
-239 -57 -108 -224 -265 -346 -327 -70 -35 -164 -50 -245 -40 -96 13 -138 26
-227 71 -42 21 -79 36 -82 33 -3 -3 9 -42 25 -87 42 -114 49 -241 19 -350 -42
-153 -121 -278 -269 -425 -214 -211 -412 -312 -613 -312 -143 1 -252 53 -384
185 -130 131 -175 230 -175 390 0 151 45 276 204 563 120 216 277 530 302 602
11 35 18 84 18 135 0 71 -3 88 -33 146 -40 81 -159 219 -270 314 -278 238
-443 262 -653 98 -123 -96 -238 -263 -254 -369 -16 -106 48 -198 226 -324 53
-38 108 -80 122 -93 62 -58 78 -148 40 -223 -23 -46 -100 -121 -168 -164 -86
-54 -176 -35 -275 57 -298 276 -210 746 210 1134 252 232 484 335 731 324 58
-2 122 -12 165 -26z m3420 -19 c142 -16 251 -47 370 -105 178 -86 304 -219
360 -382 54 -153 55 -180 55 -1054 0 -550 4 -824 11 -859 13 -59 57 -116 106
-136 44 -19 157 -18 224 2 30 9 77 28 105 44 l51 29 22 -30 c22 -29 22 -31 4
-45 -41 -31 -185 -95 -249 -110 -102 -25 -314 -22 -418 5 -44 12 -100 33 -125
47 -98 57 -189 186 -227 322 -9 34 -21 62 -25 62 -4 0 -27 -37 -50 -82 -84
-162 -228 -276 -422 -332 -227 -66 -595 -52 -789 30 -234 98 -331 248 -331
509 1 180 42 285 158 400 113 113 208 157 585 270 315 95 553 176 631 215 117
60 180 139 216 273 21 77 24 385 5 494 -27 158 -86 256 -188 310 -77 40 -141
53 -270 53 -245 0 -411 -75 -449 -203 -20 -67 -19 -126 6 -287 11 -74 17 -151
14 -170 -9 -52 -50 -107 -98 -132 -36 -20 -57 -23 -152 -23 -169 1 -231 31
-260 129 -32 108 -13 255 48 370 114 214 361 348 722 390 68 7 276 5 360 -4z
m-4384 -1923 c90 -143 113 -227 113 -402 -1 -147 -17 -225 -67 -318 -55 -104
-185 -194 -339 -234 -38 -10 -68 -20 -68 -23 0 -3 46 -28 103 -57 194 -99 302
-244 353 -479 23 -106 24 -395 1 -506 -32 -154 -115 -312 -201 -383 -119 -97
-319 -136 -520 -100 -198 35 -352 173 -450 404 -18 42 -72 196 -120 344 -101
311 -175 511 -212 575 -63 107 -145 168 -270 199 -96 24 -444 24 -557 0 -211
-44 -311 -147 -336 -342 -30 -244 50 -469 187 -522 59 -23 183 -22 336 2 63
10 129 15 155 11 128 -18 189 -137 162 -316 -22 -141 -73 -182 -232 -188 -167
-7 -298 43 -424 160 -113 106 -182 229 -233 416 -24 91 -26 110 -26 332 -1
261 9 328 67 470 100 244 251 379 503 452 79 22 82 22 994 28 841 5 919 7 960
23 56 22 78 42 101 92 36 78 14 230 -46 317 -30 45 -30 45 -2 69 32 26 39 24
68 -24z m6793 -347 c200 -51 379 -161 566 -349 183 -184 275 -330 320 -505 24
-96 26 -233 4 -326 -18 -77 -85 -208 -148 -288 -25 -31 -309 -311 -631 -622
-322 -310 -601 -587 -621 -615 -44 -64 -52 -111 -30 -170 31 -80 155 -169 273
-196 48 -11 49 -12 45 -45 -4 -31 -7 -34 -36 -34 -50 0 -216 62 -281 105 -32
22 -92 72 -131 111 -213 210 -248 398 -118 643 51 96 59 91 -90 47 -274 -81
-551 23 -828 313 -108 112 -166 192 -209 287 -72 159 -76 295 -13 423 53 108
198 252 304 303 129 62 257 74 406 38 117 -28 213 -68 449 -190 269 -139 543
-264 621 -284 130 -34 239 -14 350 62 131 89 306 264 385 385 106 163 97 302
-30 455 -115 138 -281 241 -401 250 -117 8 -184 -37 -321 -214 -95 -122 -135
-160 -190 -174 -81 -22 -159 10 -245 102 -95 101 -113 146 -87 223 12 38 34
68 87 121 115 114 237 162 417 163 74 1 129 -5 183 -19z m-8180 -2287 c91 -33
185 -93 262 -170 222 -219 257 -393 130 -647 -51 -101 -60 -96 88 -52 165 49
311 33 491 -54 118 -57 228 -143 349 -271 151 -161 225 -297 248 -458 21 -140
-25 -258 -150 -392 -75 -81 -175 -151 -257 -181 -50 -19 -81 -22 -185 -23
-114 0 -134 3 -228 33 -65 21 -202 83 -375 170 -342 173 -544 266 -627 287
-187 49 -330 -14 -561 -246 -233 -234 -291 -388 -209 -555 24 -50 57 -92 119
-154 172 -172 343 -237 469 -180 52 23 127 97 208 205 78 103 132 151 185 165
83 23 161 -11 251 -108 96 -104 110 -168 58 -258 -59 -103 -194 -196 -331
-229 -81 -19 -236 -19 -317 0 -214 51 -415 175 -613 383 -120 124 -177 203
-234 324 -56 119 -75 198 -75 322 0 159 45 287 149 426 27 36 280 288 562 560
711 685 695 669 724 731 28 61 29 69 15 120 -23 84 -173 194 -290 214 -31 5
-40 11 -36 22 3 8 6 25 6 37 0 22 2 23 51 14 29 -5 84 -21 123 -35z m7020
-958 c177 -31 318 -144 412 -330 58 -114 74 -156 145 -385 65 -210 173 -508
211 -584 60 -119 150 -189 285 -223 99 -25 435 -25 551 0 150 32 236 84 289
174 37 64 53 142 53 268 0 223 -65 369 -189 423 -48 21 -193 20 -335 -3 -64
-10 -129 -15 -155 -11 -60 8 -115 46 -143 99 -20 36 -23 57 -23 147 0 91 4
111 25 155 37 74 87 98 210 103 176 7 312 -48 445 -182 123 -124 194 -276 230
-496 26 -155 17 -438 -19 -575 -81 -309 -263 -502 -546 -577 -84 -22 -93 -22
-995 -28 -837 -5 -914 -7 -955 -23 -56 -22 -78 -42 -101 -92 -36 -78 -19 -204
43 -314 31 -56 31 -55 -15 -82 -10 -6 -20 -9 -22 -7 -14 16 -77 122 -90 154
-73 168 -70 431 6 590 52 109 182 204 344 249 33 10 63 20 67 24 4 3 -41 31
-99 60 -173 88 -274 212 -332 406 -51 174 -53 449 -5 640 41 163 157 322 277
378 108 52 283 69 431 42z m-1648 -1713 c185 -64 377 -269 413 -440 37 -179
-5 -333 -180 -652 -133 -242 -292 -561 -316 -630 -11 -35 -18 -84 -18 -135 0
-70 4 -89 32 -145 40 -81 146 -206 260 -306 288 -253 466 -276 685 -87 191
164 275 356 211 479 -28 52 -112 130 -237 219 -188 133 -204 228 -62 371 80
80 139 115 197 116 60 1 139 -44 206 -115 206 -221 196 -549 -26 -870 -109
-156 -310 -343 -472 -438 -151 -88 -350 -138 -492 -125 -211 20 -359 100 -582
316 -673 653 -1055 1017 -1101 1047 -70 47 -141 55 -200 25 -79 -40 -158 -151
-185 -257 l-12 -47 -36 7 c-20 4 -37 8 -38 9 -9 8 35 147 69 215 33 69 57 102
132 177 152 153 270 216 407 216 100 1 164 -15 276 -67 50 -24 93 -41 95 -39
3 2 -11 48 -29 101 -32 93 -34 104 -30 208 6 167 54 282 182 442 152 190 365
346 545 400 96 28 232 30 306 5z m-4024 -67 c152 -31 259 -115 328 -259 21
-45 44 -102 51 -128 6 -27 15 -48 20 -48 4 0 29 41 55 91 139 269 450 395 889
359 162 -13 236 -31 353 -85 208 -98 292 -236 292 -485 0 -184 -42 -293 -155
-405 -111 -109 -238 -170 -537 -255 -236 -68 -598 -190 -671 -227 -123 -62
-189 -139 -223 -263 -25 -90 -26 -430 -1 -538 55 -243 177 -332 455 -332 223
1 374 61 435 175 28 52 29 162 3 337 -16 104 -17 135 -8 166 16 53 45 88 95
115 37 19 57 22 157 22 102 0 120 -3 165 -25 67 -34 96 -86 103 -186 22 -345
-265 -608 -731 -670 -159 -21 -389 -14 -535 15 -338 70 -554 256 -634 546 -22
79 -22 91 -28 955 -5 814 -6 878 -23 915 -38 85 -89 115 -195 115 -80 0 -156
-20 -228 -60 l-51 -29 -22 30 c-22 29 -22 31 -4 45 30 24 175 92 222 104 118
31 285 33 423 5z"/>
<path d="M4157 9662 c7 -80 -7 -126 -137 -416 -60 -137 -119 -276 -129 -311
-66 -212 -18 -397 144 -561 44 -44 109 -100 144 -124 147 -99 302 -117 435
-51 113 55 241 197 291 321 26 66 32 209 11 290 -24 91 -77 196 -148 292 -56
76 -423 448 -560 569 l-56 49 5 -58z"/>
<path d="M7570 9366 c0 -24 -58 -75 -121 -106 -32 -16 -180 -77 -329 -134
-300 -116 -367 -152 -455 -241 -122 -125 -172 -296 -146 -501 37 -286 176
-414 450 -414 187 0 304 44 415 156 104 103 164 244 191 448 18 138 22 806 5
806 -5 0 -10 -6 -10 -14z"/>
<path d="M1480 7611 c0 -6 7 -11 15 -11 24 0 83 -67 114 -128 16 -31 72 -163
126 -292 118 -288 150 -347 234 -431 70 -70 145 -115 247 -145 79 -25 299 -25
397 -1 218 54 327 194 327 422 -1 305 -187 501 -543 571 -103 20 -917 33 -917
15z"/>
<path d="M8678 7070 c-131 -23 -252 -94 -358 -207 -131 -140 -175 -236 -168
-367 6 -109 43 -179 147 -279 129 -123 237 -170 391 -170 158 0 302 57 480
192 86 65 579 526 587 549 2 4 -36 7 -85 7 -85 1 -90 2 -272 77 -369 153 -406
167 -464 182 -75 20 -197 27 -258 16z"/>
<path d="M2109 5049 c-152 -21 -327 -120 -520 -295 -106 -96 -459 -438 -459
-445 0 -3 27 -3 60 -1 81 6 112 -4 415 -128 297 -122 333 -135 430 -150 192
-31 386 44 534 207 130 141 176 240 169 363 -6 101 -39 172 -120 257 -147 154
-317 218 -509 192z"/>
<path d="M8315 4505 c-159 -30 -269 -105 -327 -222 -27 -56 -32 -77 -36 -169
-8 -186 33 -308 141 -418 74 -75 142 -115 262 -155 148 -50 277 -61 691 -61
236 0 364 4 364 10 0 6 -6 10 -14 10 -27 0 -73 50 -109 117 -19 38 -83 183
-141 323 -138 332 -196 417 -341 501 -120 70 -319 96 -490 64z"/>
<path d="M6333 2926 c-144 -47 -307 -215 -353 -364 -27 -88 -27 -208 1 -298
55 -178 136 -285 453 -597 138 -136 264 -257 280 -269 l28 -21 -8 24 c-12 36
-7 110 12 164 9 27 67 164 129 304 131 297 148 352 148 476 0 139 -49 256
-154 370 -61 66 -175 149 -254 186 -59 28 -83 34 -155 36 -53 2 -101 -2 -127
-11z"/>
<path d="M3746 3114 c-190 -46 -334 -199 -399 -424 -39 -134 -48 -270 -45
-639 l3 -334 25 39 c35 53 116 94 413 208 282 109 350 141 427 202 141 110
204 254 203 459 -2 269 -99 433 -292 489 -69 20 -252 20 -335 0z"/>
</g>
</svg>
